<svg width="99" height="81" viewBox="0 0 99 81" fill="none" xmlns="http://www.w3.org/2000/svg">
<g style="mix-blend-mode:screen" opacity="0.9">
<path d="M5.68995 11.2593L5.21766 12.5412L5.98231 13.6881L4.63293 13.5982L3.75583 14.7452L3.46346 13.3733L2.06909 12.946L3.30603 12.1813L3.26105 10.787L4.40803 11.6866L5.68995 11.2593Z" fill="#FAD112"/>
</g>
<g style="mix-blend-mode:screen" opacity="0.9">
<path d="M58.4285 54.0573L58.0012 55.2717L58.6984 56.3513L57.4614 56.2613L56.6293 57.3183L56.3594 56.0364L55.055 55.6316L56.202 54.9344L56.157 53.63L57.2365 54.4621L58.4285 54.0573Z" fill="#FAD112"/>
</g>
<path d="M99 18.7708C99 19.696 98.7256 20.6004 98.2116 21.3697C97.6976 22.1389 96.967 22.7385 96.1122 23.0926C95.2575 23.4466 94.3169 23.5393 93.4095 23.3588C92.5021 23.1783 91.6686 22.7327 91.0143 22.0785C90.3601 21.4243 89.9146 20.5908 89.7341 19.6834C89.5536 18.776 89.6463 17.8354 90.0003 16.9806C90.3544 16.1259 90.9539 15.3953 91.7232 14.8813C92.4925 14.3672 93.3969 14.0929 94.3221 14.0929C95.5627 14.0929 96.7526 14.5857 97.6299 15.463C98.5071 16.3403 99 17.5301 99 18.7708Z" fill="#FFEF93"/>
<path d="M40.5041 0.0367584C32.4976 0.0367584 24.6709 2.41096 18.0137 6.85914C11.3565 11.3073 6.16792 17.6297 3.10396 25.0267C0.040004 32.4238 -0.761671 40.5633 0.800321 48.4159C2.36231 56.2686 6.21781 63.4817 11.8793 69.1432C17.5407 74.8046 24.7539 78.6601 32.6065 80.2221C40.4592 81.7841 48.5987 80.9825 55.9957 77.9185C63.3928 74.8546 69.7151 69.6659 74.1633 63.0087C78.6115 56.3516 80.9857 48.5249 80.9857 40.5184C80.9857 29.782 76.7207 19.4853 69.1289 11.8936C61.5371 4.30178 51.2405 0.0367584 40.5041 0.0367584Z" fill="#00A1DB"/>
<g style="mix-blend-mode:multiply" opacity="0.4">
<path d="M40.5041 0.0367584C32.4976 0.0367584 24.6709 2.41096 18.0137 6.85914C11.3565 11.3073 6.16792 17.6297 3.10396 25.0267C0.040004 32.4238 -0.761671 40.5633 0.800321 48.4159C2.36231 56.2686 6.21781 63.4817 11.8793 69.1432C17.5407 74.8046 24.7539 78.6601 32.6065 80.2221C40.4592 81.7841 48.5987 80.9825 55.9957 77.9185C63.3928 74.8546 69.7151 69.6659 74.1633 63.0087C78.6115 56.3516 80.9857 48.5249 80.9857 40.5184C80.9857 29.782 76.7207 19.4853 69.1289 11.8936C61.5371 4.30178 51.2405 0.0367584 40.5041 0.0367584ZM44.6422 19.5354C45.7892 20.5474 47.4534 20.1651 48.8253 20.6374C50.8719 21.3571 51.704 24.3257 51.659 26.2373C51.6333 27.3369 51.2907 28.4057 50.6723 29.3153C50.0539 30.2249 49.1861 30.9366 48.1731 31.365L46.8462 32.0847C44.8315 34.6179 43.3684 37.5441 42.5507 40.6758C42.395 41.2061 42.3669 41.7657 42.4685 42.3089C42.5701 42.8522 42.7986 43.3637 43.1354 43.8019C43.917 44.4355 44.7523 44.9998 45.6318 45.4886C47.3635 46.7705 46.8462 48.5922 46.9137 50.4364C46.9137 51.2235 46.9137 53.2476 48.2181 52.9777C48.7803 52.8428 49.3426 52.5954 49.9048 52.4155C50.468 52.16 51.0919 52.0689 51.7046 52.1524C52.3173 52.236 52.894 52.4909 53.3682 52.8877C54.1211 53.8976 54.5146 55.1302 54.486 56.3895C54.4575 57.6488 54.0086 58.8624 53.2108 59.8371C50.7191 62.4899 47.5441 64.4042 44.035 65.3696C40.4235 66.7719 36.5064 67.1986 32.6776 66.6065C31.9232 66.4983 31.1984 66.2383 30.5471 65.8424C29.8958 65.4465 29.3314 64.9227 28.888 64.3028C28.4445 63.6828 28.1313 62.9795 27.967 62.2352C27.8028 61.4909 27.791 60.721 27.9323 59.972C28.2921 56.5536 30.1813 53.45 30.6985 50.0541C30.9321 48.8086 30.8937 47.5274 30.5861 46.2982C29.619 45.2862 28.3371 43.4645 26.8078 43.1272C25.6732 43.0411 24.5459 42.8758 23.4343 42.6324C22.995 42.4449 22.5993 42.1685 22.2719 41.8206C21.9446 41.4727 21.6927 41.0609 21.5322 40.611C21.3717 40.1611 21.3059 39.6829 21.3391 39.2064C21.3723 38.7299 21.5038 38.2654 21.7251 37.8421C22.5518 36.0301 23.9719 34.5545 25.7508 33.659C27.415 32.602 30.2487 31.0052 29.4616 28.5988C28.607 25.8325 25.6608 24.6631 23.7042 22.7739C22.1676 21.0546 21.1125 18.9598 20.6456 16.7017C19.6561 14.7676 18.3966 12.4286 19.2288 10.3821C20.5342 7.9511 22.7244 6.1152 25.346 5.25439C30.9979 3.03512 37.1459 2.39 43.1354 3.38773C45.1039 3.63979 47.0509 4.03821 48.9603 4.57969C50.7832 4.91349 52.4837 5.72881 53.8855 6.94112C54.0989 7.12269 54.2703 7.34847 54.3879 7.60282C54.5054 7.85716 54.5663 8.134 54.5663 8.4142C54.5663 8.6944 54.5054 8.97125 54.3879 9.2256C54.2703 9.47995 54.0989 9.70571 53.8855 9.88728C52.3335 10.6946 50.619 11.1405 48.8703 11.1917C47.8354 11.2532 46.8245 11.5289 45.9016 12.0013C44.979 12.8267 44.3942 13.9642 44.2599 15.1949C43.945 16.3643 43.5627 18.5908 44.6422 19.5354Z" fill="#209BC7"/>
</g>
<path d="M17.9918 12.3163C17.8117 11.9176 17.6978 11.4922 17.6545 11.0568C17.592 10.0159 17.4263 8.98384 17.1597 7.97572C12.0556 11.567 7.85089 16.2898 4.87416 21.7751C1.89743 27.2604 0.229265 33.3596 0 39.5964C0.281878 40.0724 0.678717 40.4701 1.15415 40.753C1.62959 41.0359 2.16841 41.195 2.72127 41.2156C4.30648 40.8055 5.9561 40.7062 7.57906 40.9232C7.62278 40.9288 7.66296 40.9501 7.69198 40.9833C7.721 41.0165 7.73683 41.0591 7.73649 41.1032C7.65456 41.7338 7.52679 42.3577 7.35417 42.9698C7.12927 43.8694 10.2329 45.2188 10.4128 46.5007C10.6527 48.2849 10.9225 50.0616 11.2224 51.8308C11.4495 53.8929 12.0276 55.9009 12.9316 57.7681C13.2015 58.2404 15.1806 59.1625 15.5629 58.8701C16.2142 58.0754 17.1505 57.5669 18.1717 57.4533C19.4728 57.6264 20.7154 58.1008 21.8008 58.8387C22.8862 59.5766 23.7844 60.5577 24.4239 61.7038C26.2878 57.7613 27.7931 53.6592 28.9219 49.4469C28.607 49.0646 24.8512 44.5441 22.4898 45.3088C20.5557 45.961 16.8449 47.9401 16.8898 47.8051C17.4071 46.2758 17.9019 44.7465 18.4191 43.3072C17.659 43.2817 16.9043 43.1685 16.1702 42.9698C16.1702 40.9233 18.5991 33.6366 20.2183 32.782C21.2304 32.2422 22.3099 31.7699 23.3219 31.1852C23.5018 31.0728 24.7388 30.443 24.6038 30.1731C24.3154 29.6547 24.0002 29.1518 23.6593 28.6663C22.7829 27.5429 22.0289 26.329 21.4103 25.0455C21.2079 24.5957 16.7999 25.4278 16.9123 25.3153C17.7582 23.5695 18.436 21.7471 18.9364 19.8728C18.9364 18.0736 16.6874 17.8038 15.6079 16.7242C14.5284 15.6447 18.2617 13.1934 17.9918 12.3163Z" fill="#008949"/>
<path d="M78.9166 28.2165C78.2869 29.5434 77.6797 30.8927 77.0725 32.2421C77.0558 32.2653 77.0339 32.2843 77.0084 32.2973C76.983 32.3104 76.9549 32.3172 76.9263 32.3172C76.8977 32.3172 76.8696 32.3104 76.8441 32.2973C76.8187 32.2843 76.7968 32.2653 76.7801 32.2421C75.8805 31.0952 76.0604 29.161 74.9135 28.239C73.7053 27.4434 72.3868 26.8297 71.0002 26.4173C70.9762 26.4121 70.9535 26.402 70.9336 26.3877C70.9136 26.3734 70.8968 26.3551 70.8841 26.334C70.8715 26.313 70.8633 26.2895 70.86 26.2652C70.8568 26.2408 70.8586 26.216 70.8653 26.1924C71.1953 24.7778 71.7015 23.4103 72.3721 22.1217C72.642 21.5595 73.4966 20.4575 73.2942 19.8728C73.0918 19.288 72.8894 18.5459 72.7095 17.8937C72.5295 17.2415 72.3721 16.6118 72.2372 15.9595C70.0721 13.2548 67.5791 10.8297 64.8155 8.74031C65.1222 9.68652 65.3479 10.6571 65.4902 11.6415C65.5141 11.6832 65.5204 11.7328 65.5077 11.7792C65.4951 11.8256 65.4645 11.865 65.4228 11.8889C65.381 11.9127 65.3315 11.919 65.2851 11.9064C65.2387 11.8937 65.1992 11.8632 65.1754 11.8214C64.3933 11.195 63.558 10.6382 62.679 10.1572C61.8072 9.59452 60.8389 9.19802 59.8228 8.9877C57.5738 8.67284 58.4509 13.1033 58.2035 14.3853C58.2035 14.5202 52.5811 13.8005 49.7924 15.2174C49.7924 16.1395 50.0622 17.0391 50.2197 17.9386H50.5345C52.1519 18.0681 53.6869 18.7057 54.92 19.7603C54.92 19.7603 53.5707 22.0093 52.6711 23.4262C52.8735 23.8085 53.0759 24.1908 53.3008 24.5731C53.8369 24.8969 54.355 25.2498 54.8526 25.6301C55.3249 25.99 55.5498 25.6302 55.9771 25.3603C56.4044 25.0904 56.8092 24.7306 57.2365 24.4607C58.4959 23.6735 63.8035 25.5852 63.7585 26.9121C63.5082 28.1351 63.0191 29.2968 62.3192 30.3305C62.2908 30.3543 62.255 30.3673 62.218 30.3673C62.181 30.3673 62.1451 30.3543 62.1168 30.3305C61.441 30.0939 60.7864 29.8005 60.1602 29.4534L57.9112 30.0157C57.1284 31.3903 56.2569 32.7125 55.3024 33.9739C55.2682 33.9936 55.2294 34.004 55.1899 34.004C55.1504 34.004 55.1117 33.9936 55.0775 33.9739C54.0879 33.659 52.3562 32.6919 50.7819 32.2646C49.7676 32.5661 48.7877 32.9732 47.8582 33.4791C46.83 36.2553 46.0106 39.1044 45.4069 42.0027C46.1265 42.6774 46.8237 43.4196 47.4759 44.2517H47.8133C48.3903 44.3612 48.9366 44.5949 49.4143 44.9366C49.892 45.2784 50.2896 45.72 50.5795 46.2308C50.8385 46.8648 50.9538 47.5484 50.9169 48.2324L51.9964 49.132C52.3707 48.7965 52.8157 48.5495 53.2985 48.4094C53.7812 48.2692 54.2893 48.2395 54.7851 48.3223C55.5191 48.6488 56.1776 49.1235 56.7192 49.7167C57.6378 50.5124 58.5019 51.3689 59.3055 52.2805C59.7652 53.0907 59.9955 54.0107 59.9717 54.9418C59.9479 55.873 59.671 56.78 59.1706 57.5657C58.6309 58.8701 57.9112 60.152 57.4389 61.5014C57.8437 62.7608 58.271 64.0202 58.6983 65.2796L59.6204 65.9993C60.8573 65.2122 62.0718 64.425 63.2637 63.5929C63.1961 62.6721 63.1961 61.7475 63.2637 60.8267C63.2874 59.4497 63.8155 58.1293 64.7481 57.1159C66.1412 55.8324 67.7178 54.7636 69.426 53.9448C69.8308 51.8308 70.0107 49.6717 70.2806 47.5352C68.6613 47.1978 67.0195 46.9505 65.4453 46.4557C65.4255 46.4368 65.4098 46.4141 65.3991 46.389C65.3884 46.3639 65.3828 46.3368 65.3828 46.3095C65.3828 46.2822 65.3884 46.2551 65.3991 46.23C65.4098 46.2049 65.4255 46.1822 65.4453 46.1633C66.1911 44.1957 66.8366 42.1915 67.3794 40.1585C67.3927 40.1208 67.4168 40.0878 67.4489 40.0638C67.4809 40.0398 67.5193 40.0258 67.5593 40.0236C68.3914 40.0236 69.2011 40.0236 70.0332 40.1585C70.7271 40.3132 71.4363 40.3887 72.1472 40.3835C72.7994 38.9216 73.1593 37.3248 73.789 35.8855C73.8261 35.8523 73.8741 35.834 73.9239 35.834C73.9737 35.834 74.0217 35.8523 74.0589 35.8855C75.6191 37.0674 77.0446 38.4174 78.3094 39.9112C78.6243 40.2485 80.0411 38.4943 80.9632 37.2574C80.6328 34.1748 79.946 31.1409 78.9166 28.2165Z" fill="#008949"/>
<path d="M22.1974 12.6085V12.7435C23.3893 13.4407 24.4464 14.2503 25.6608 14.9925C26.6504 13.9579 30.1588 8.83026 30.5411 8.83026C28.8094 8.83026 27.1002 8.47043 25.3684 8.33549C24.2251 9.69373 23.1661 11.1207 22.1974 12.6085Z" fill="#008949"/>
<path d="M70.0107 61.9512C69.0661 61.9512 68.1216 62.1536 67.1545 62.3335C67.1545 63.3231 67.1545 64.3576 67.0421 65.3697C67.5593 65.3697 68.9087 65.2347 70.2131 65.1223C70.0788 64.0706 70.0112 63.0114 70.0107 61.9512Z" fill="#008949"/>
<path d="M17.9918 11.7765C17.8144 11.3847 17.7005 10.9672 17.6545 10.5396C17.5922 9.49127 17.4264 8.4517 17.1597 7.43599C12.0556 11.0273 7.85089 15.75 4.87416 21.2353C1.89743 26.7206 0.229265 32.8199 0 39.0566C0.281878 39.5327 0.678717 39.9303 1.15415 40.2132C1.62959 40.4962 2.16841 40.6552 2.72127 40.6759C4.30818 40.2766 5.95572 40.1775 7.57906 40.3835C7.621 40.3929 7.65887 40.4154 7.68717 40.4478C7.71548 40.4801 7.73275 40.5206 7.73649 40.5634C7.65424 41.2015 7.52648 41.8328 7.35417 42.4526C7.12927 43.3297 10.2329 44.7016 10.4128 45.961C10.6602 47.7377 10.93 49.5368 11.2224 51.291C11.4455 53.3539 12.0238 55.3626 12.9316 57.2284C13.2015 57.7006 15.1806 58.6227 15.5629 58.3304C15.8834 57.9363 16.2791 57.6101 16.727 57.3707C17.1749 57.1313 17.6661 56.9835 18.1717 56.936C19.4728 57.0999 20.717 57.5681 21.8032 58.3027C22.8895 59.0373 23.7874 60.0176 24.4239 61.1641C26.2915 57.2231 27.797 53.1206 28.9219 48.9071C28.607 48.5248 24.8512 44.0044 22.4898 44.7915C20.5557 45.4212 16.8449 47.4003 16.8898 47.2654C17.4071 45.7586 17.9019 44.2293 18.4191 42.7674C17.659 42.726 16.9053 42.6054 16.1702 42.4076C16.1702 40.3835 18.5991 33.0743 20.2183 32.2422C21.2304 31.7024 22.3099 31.2077 23.3219 30.623C23.5018 30.623 24.7388 29.9033 24.6038 29.6334C24.3155 29.1077 24.0002 28.5972 23.6593 28.1041C22.7829 26.9806 22.0289 25.7668 21.4103 24.4832C21.2079 24.0334 16.7999 24.8656 16.9123 24.7756C17.7213 22.9876 18.3613 21.1278 18.824 19.2206C18.824 17.4214 16.575 17.1516 15.4955 16.0721C14.416 14.9925 18.2617 12.6536 17.9918 11.7765Z" fill="#BDD430"/>
<path d="M78.9166 27.5643C78.2869 28.9137 77.6797 30.2631 77.0725 31.59C77.0558 31.6132 77.0339 31.6321 77.0084 31.6452C76.983 31.6582 76.9549 31.665 76.9263 31.665C76.8977 31.665 76.8696 31.6582 76.8441 31.6452C76.8187 31.6321 76.7968 31.6132 76.7801 31.59C75.8805 30.443 76.0604 28.5089 74.9135 27.5868C73.7044 26.7983 72.3859 26.1921 71.0002 25.7876C70.9529 25.7679 70.9138 25.7327 70.8892 25.6877C70.8647 25.6427 70.8562 25.5907 70.8653 25.5402C71.1953 24.1257 71.7015 22.7581 72.3721 21.4696C72.642 20.9298 73.4966 19.8053 73.2942 19.2206C73.0918 18.6359 72.8894 17.9162 72.7095 17.2415C72.5295 16.5668 72.3721 15.9596 72.2372 15.3074C70.0721 12.6026 67.5791 10.1776 64.8155 8.08817C65.1197 9.03508 65.3453 10.0054 65.4902 10.9893C65.5021 11.01 65.5097 11.0328 65.5127 11.0564C65.5157 11.0801 65.514 11.104 65.5077 11.127C65.5015 11.15 65.4907 11.1715 65.4762 11.1903C65.4616 11.2092 65.4434 11.2249 65.4228 11.2367C65.4021 11.2485 65.3793 11.2562 65.3557 11.2592C65.3321 11.2622 65.3081 11.2605 65.2851 11.2542C65.2621 11.248 65.2406 11.2372 65.2218 11.2227C65.203 11.2081 65.1872 11.1899 65.1754 11.1693C64.3983 10.5425 63.5623 9.99271 62.679 9.52751C61.8133 8.94871 60.8432 8.54388 59.8228 8.33555C57.5738 8.04319 58.4509 12.4512 58.2035 13.7556C58.2035 13.7556 52.5811 13.1484 49.7924 14.5877C49.7924 15.4873 50.0622 16.3869 50.2197 17.2865H50.5345C52.1522 17.3971 53.6907 18.0283 54.92 19.0857C54.92 19.0857 53.5707 21.3346 52.6711 22.7515C52.8735 23.1338 53.0759 23.5162 53.3008 23.8985C53.8369 24.2223 54.355 24.5751 54.8526 24.9555C55.3249 25.3153 55.5498 24.9555 55.9771 24.6856C56.4044 24.4157 56.8092 24.0784 57.2365 23.8085C58.4959 23.0214 63.8035 24.9105 63.7585 26.2374C63.5123 27.4617 63.0228 28.6241 62.3192 29.6559C62.3065 29.6702 62.2909 29.6817 62.2735 29.6896C62.256 29.6975 62.2371 29.7015 62.218 29.7015C62.1988 29.7015 62.1799 29.6975 62.1625 29.6896C62.145 29.6817 62.1294 29.6702 62.1168 29.6559C61.4372 29.4287 60.7818 29.1349 60.1602 28.7788C59.4405 28.9587 58.7208 29.1386 57.9112 29.3635C57.1282 30.7308 56.2568 32.0455 55.3024 33.2992C55.2803 33.3382 55.2472 33.3698 55.2071 33.3898C55.167 33.4098 55.1219 33.4174 55.0775 33.4117C54.0879 33.0743 52.3562 32.1072 50.7819 31.6799C49.7676 31.9814 48.7877 32.3885 47.8582 32.8944C46.833 35.6716 46.0136 38.5205 45.4069 41.418C46.1381 42.1283 46.8289 42.8792 47.4759 43.667H47.8133C48.3888 43.7807 48.9333 44.0161 49.4104 44.3574C49.8875 44.6987 50.2861 45.1381 50.5795 45.6461C50.8385 46.2802 50.9538 46.9638 50.9169 47.6477L51.9964 48.5473C52.3772 48.2164 52.8278 47.9759 53.3145 47.8435C53.8013 47.7111 54.3117 47.6903 54.8076 47.7826C55.5325 48.1246 56.1882 48.5973 56.7417 49.177C57.6526 49.9734 58.5091 50.83 59.3055 51.7408C59.7652 52.551 59.9955 53.471 59.9717 54.4021C59.9479 55.3332 59.671 56.2403 59.1706 57.0259C58.6309 58.3303 57.9112 59.6123 57.4389 60.9616C57.8437 62.2211 58.271 63.4805 58.6983 64.7399L59.6204 65.4596C60.8573 64.6725 62.0718 63.8853 63.2637 63.0532C63.1962 62.1324 63.1962 61.2078 63.2637 60.2869C63.2874 58.91 63.8155 57.5895 64.7481 56.5761C66.1361 55.2922 67.7139 54.2302 69.426 53.4276C69.8308 51.3135 70.0107 49.1545 70.2806 47.018C68.6613 46.6581 67.0195 46.4107 65.4453 45.916C65.4255 45.8971 65.4098 45.8744 65.3991 45.8493C65.3884 45.8241 65.3828 45.7971 65.3828 45.7698C65.3828 45.7425 65.3884 45.7155 65.3991 45.6903C65.4098 45.6652 65.4255 45.6425 65.4453 45.6236C66.1943 43.6648 66.8399 41.6679 67.3794 39.6413C67.3794 39.6413 67.3794 39.4839 67.5593 39.5064L70.0332 39.6413C70.7278 39.7896 71.4371 39.8575 72.1472 39.8437C72.7994 38.3819 73.1593 36.8076 73.789 35.3458C73.8261 35.3126 73.8741 35.2942 73.9239 35.2942C73.9737 35.2942 74.0217 35.3126 74.0589 35.3458C75.6249 36.5293 77.0509 37.8875 78.3094 39.3939C78.6243 39.7313 80.0411 37.9546 80.9632 36.7177C80.6366 33.5978 79.9498 30.5262 78.9166 27.5643Z" fill="#87C241"/>
<path d="M22.1974 12.0913C23.3893 12.7885 24.4464 13.5981 25.6608 14.3403C26.6504 13.3058 30.1588 8.15561 30.5411 8.1781C28.8094 8.1781 27.1002 7.81827 25.3684 7.66084C24.2148 9.06605 23.1554 10.5461 22.1974 12.0913Z" fill="#47B549"/>
<path d="M70.0107 61.3214C69.0526 61.3873 68.099 61.5075 67.1545 61.6813C67.1545 62.6933 67.1545 63.7279 67.0421 64.7399C67.5593 64.7399 68.9087 64.6049 70.2131 64.47C70.0792 63.4258 70.0116 62.3742 70.0107 61.3214Z" fill="#47B549"/>
<g style="mix-blend-mode:multiply" opacity="0.7">
<path d="M40.5041 0.0367584C32.4976 0.0367584 24.6709 2.41096 18.0137 6.85914C11.3565 11.3073 6.16792 17.6297 3.10396 25.0267C0.040004 32.4238 -0.761671 40.5633 0.800321 48.4159C2.36231 56.2686 6.21781 63.4817 11.8793 69.1432C17.5407 74.8046 24.7539 78.6601 32.6065 80.2221C40.4592 81.7841 48.5987 80.9825 55.9957 77.9185C63.3928 74.8546 69.7151 69.6659 74.1633 63.0087C78.6115 56.3516 80.9857 48.5249 80.9857 40.5184C80.9857 29.782 76.7207 19.4853 69.1289 11.8936C61.5371 4.30178 51.2405 0.0367584 40.5041 0.0367584ZM37.3105 69.5077C30.6785 69.5077 24.1954 67.5411 18.681 63.8565C13.1667 60.1719 8.86875 54.9349 6.33077 48.8077C3.79279 42.6804 3.12874 35.9382 4.42259 29.4336C5.71644 22.929 8.91007 16.9541 13.5996 12.2645C18.2892 7.57496 24.2641 4.38133 30.7687 3.08748C37.2733 1.79363 44.0156 2.45768 50.1428 4.99566C56.27 7.53363 61.507 11.8316 65.1916 17.3459C68.8762 22.8603 70.8428 29.3434 70.8428 35.9754C70.8428 44.8687 67.31 53.3978 61.0214 59.6863C54.7329 65.9749 46.2039 69.5077 37.3105 69.5077Z" fill="#209BC7"/>
</g>
<g style="mix-blend-mode:multiply" opacity="0.7">
<path d="M67.9641 10.7645C75.5571 18.3604 79.8217 28.6617 79.8196 39.4019C79.8175 50.1422 75.5489 60.4417 67.9529 68.0347C60.3569 75.6277 50.0557 79.8922 39.3154 79.8901C44.6335 79.8912 49.8996 78.8447 54.8133 76.8106C59.7269 74.7764 64.1917 71.7944 67.9529 68.0347C71.714 64.275 74.6978 59.8113 76.7339 54.8985C78.77 49.9857 79.8185 44.7199 79.8196 39.4019C79.8206 34.0839 78.7742 28.8177 76.74 23.9041C74.7059 18.9905 71.7238 14.5256 67.9641 10.7645Z" fill="#209BC7"/>
</g>
</svg>
